<?xml version="1.0" standalone="no"?>
<!DOCTYPE svg PUBLIC "-//W3C//DTD SVG 20010904//EN"
 "http://www.w3.org/TR/2001/REC-SVG-20010904/DTD/svg10.dtd">
<svg version="1.0" xmlns="http://www.w3.org/2000/svg"
 width="138.000000pt" height="138.000000pt" viewBox="0 0 138.000000 138.000000"
 preserveAspectRatio="xMidYMid meet">
<metadata>
Created by potrace 1.11, written by Peter Selinger 2001-2013
</metadata>
<g transform="translate(0.000000,138.000000) scale(0.100000,-0.100000)"
fill="#000000" stroke="none">
<path d="M0 690 l0 -690 690 0 690 0 0 690 0 690 -690 0 -690 0 0 -690z m1013
416 c127 -46 191 -190 141 -316 l-17 -41 31 -32 c125 -129 49 -359 -128 -392
l-35 -6 -25 63 c-14 35 -26 66 -28 70 -2 5 10 8 26 8 44 0 61 9 77 41 22 41
18 73 -11 108 -24 29 -30 31 -98 31 l-73 0 -29 72 c-16 40 -30 76 -32 80 -2 5
31 8 73 8 67 0 79 3 100 25 35 34 35 96 0 130 -23 24 -30 25 -138 25 l-114 0
-21 53 c-11 28 -23 60 -27 70 -7 16 4 17 141 17 98 -1 162 -5 187 -14z m-353
-5 c0 -5 68 -175 151 -378 83 -202 154 -376 156 -385 5 -16 -3 -18 -79 -18
l-85 0 -28 70 -28 70 -185 -2 -185 -3 -28 -65 -27 -65 -87 -3 c-68 -2 -86 0
-82 10 3 7 49 120 103 251 l98 237 83 0 c46 0 83 -4 83 -9 0 -5 -15 -45 -34
-88 -58 -137 -66 -123 73 -123 76 0 121 4 121 10 0 6 -26 75 -59 153 l-58 143
40 102 c22 56 44 102 49 102 4 0 8 -4 8 -9z"/>
</g>
</svg>
